# xmcd
#
# Track frame offsets: 
#        150
#        34358
#        63183
#        89583
#        117858
#        135258
#        145983
#        162408
#        179733
#        237858
#        252783
#        268833
#        281283
#        298758
#        304533
#
# Disc length: 4167 seconds
#
# Revision: 9
# Processed by: cddbd v1.5.2PL0 Copyright (c) Steve Scherf et al.
# Submitted via: ExactAudioCopy v1.3
#
DISCID=dd10450f
DTITLE=Various Artist - Philips Classics 30 - Bach - Partitas Nos. 1, 2 and 3 f
DTITLE=or violin solo
DYEAR=2015
DGENRE=Classical
TTITLE0=Gidon Kremer - violin [1980] - Partita for solo violin No.1  B
TTITLE0=WV 1002 in B minor - I. Allemanda - Double
TTITLE1=Gidon Kremer - violin [1980] - Partita for solo violin No.1  B
TTITLE1=WV 1002 in B minor - II.Corrente - Double (Presto)
TTITLE2=Gidon Kremer - violin [1980] - Partita for solo violin No.1  B
TTITLE2=WV 1002 in B minor - III.Sarabande - Double
TTITLE3=Gidon Kremer - violin [1980] - Partita for solo violin No.1  B
TTITLE3=WV 1002 in B minor - VI.Tempo di Borea - Double
TTITLE4=Gidon Kremer - violin [1980] - Partita for solo violin No.2  B
TTITLE4=WV 1004 in D minor - I. Allemanda
TTITLE5=Gidon Kremer - violin [1980] - Partita for solo violin No.2  B
TTITLE5=WV 1004 in D minor - II. Corrente
TTITLE6=Gidon Kremer - violin [1980] - Partita for solo violin No.2  B
TTITLE6=WV 1004 in D minor - III. Sarabanda
TTITLE7=Gidon Kremer - violin [1980] - Partita for solo violin No.2  B
TTITLE7=WV 1004 in D minor - IV. Giga
TTITLE8=Gidon Kremer - violin [1980] - Partita for solo violin No.2  B
TTITLE8=WV 1004 in D minor - V. Ciaccona
TTITLE9=Gidon Kremer - violin [1980] - Partita for solo violin No.3  B
TTITLE9=WV 1006 in E major - I. Preludio
TTITLE10=Gidon Kremer - violin [1980] - Partita for solo violin No.3  
TTITLE10=BWV 1006 in E major - II. Loure
TTITLE11=Gidon Kremer - violin [1980] - Partita for solo violin No.3  
TTITLE11=BWV 1006 in E major - III. Gavotte en Rondeau
TTITLE12=Gidon Kremer - violin [1980] - Partita for solo violin No.3  
TTITLE12=BWV 1006 in E major - IV. Menuet I-II
TTITLE13=Gidon Kremer - violin [1980] - Partita for solo violin No.3  
TTITLE13=BWV 1006 in E major - V. Bourree
TTITLE14=Gidon Kremer - violin  [1980] - Partita for solo violin No.3 
TTITLE14=BWV 1006 in E major - VI. Gigue
EXTD=YEAR: 1980
EXTT0=
EXTT1=
EXTT2=
EXTT3=
EXTT4=
EXTT5=
EXTT6=
EXTT7=
EXTT8=
EXTT9=
EXTT10=
EXTT11=
EXTT12=
EXTT13=
EXTT14=
PLAYORDER=
